<svg version="1.1" id="Layer_1" xmlns="http://www.w3.org/2000/svg" xmlns:xlink="http://www.w3.org/1999/xlink" x="0px" y="0px"
	 width="100%" viewBox="0 0 1024 672" enable-background="new 0 0 1024 672" xml:space="preserve">
<path fill="#000000" opacity="1.000000" stroke="none" 
	d="
M302.464508,441.817139 
	C253.610397,429.431976 218.401260,389.323578 212.886215,340.104462 
	C206.096130,279.506226 249.243683,222.123062 309.193146,211.973572 
	C368.650330,201.907440 434.761322,241.411636 445.577209,310.257721 
	C452.713379,355.681458 431.378754,405.612091 388.754395,429.279327 
	C363.433990,443.338562 336.461151,448.462341 307.766479,442.888336 
	C306.132629,442.570984 304.498077,442.257233 302.464508,441.817139 
M355.119598,219.434586 
	C342.203735,216.404190 329.206177,215.349289 315.971619,217.127411 
	C245.816376,226.553131 201.941849,296.121185 224.247711,363.240967 
	C240.687912,412.710632 291.369995,447.293976 348.186951,437.699768 
	C413.633545,426.648315 451.955627,366.732208 439.073273,305.881500 
	C429.407288,260.223633 399.960388,232.653717 355.119598,219.434586 
z"/>
<path fill="#000000" opacity="1.000000" stroke="none" 
	d="
M547.376099,316.092285 
	C543.123779,322.453979 540.579407,329.528595 537.398743,336.294983 
	C536.374878,338.473145 535.480469,340.405914 532.453979,340.355225 
	C529.454773,340.304962 528.557007,338.352722 527.553345,336.183838 
	C524.417419,329.407135 521.229797,322.654388 517.135132,316.003510 
	C517.135132,321.368408 517.135986,326.733337 517.134949,332.098236 
	C517.133484,339.926025 517.041626,347.755188 517.166138,355.580963 
	C517.228210,359.476227 515.198303,360.267487 511.820892,360.274231 
	C508.329987,360.281219 506.654968,359.235443 506.680908,355.417816 
	C506.800995,337.764343 506.718384,320.109558 506.746338,302.455322 
	C506.749878,300.201416 506.219055,297.192627 509.650452,297.173431 
	C513.344238,297.152710 517.890442,294.887787 520.284546,299.915527 
	C523.433044,306.527649 526.453674,313.200531 529.556213,319.834747 
	C530.316223,321.459930 531.180542,323.036346 532.326294,325.280243 
	C536.958008,317.832489 540.230957,310.409851 543.277954,302.980316 
	C545.508301,297.541962 549.085022,296.443237 554.206909,296.866943 
	C557.064514,297.103363 558.399414,298.124939 558.387695,301.125916 
	C558.316345,319.446136 558.281494,337.766968 558.374512,356.086914 
	C558.394470,360.019287 556.115356,360.226349 553.178406,360.252777 
	C550.159851,360.279968 547.908875,359.808136 547.935364,356.030518 
	C548.009033,345.538513 547.998901,335.045685 547.963867,324.553375 
	C547.954468,321.733887 547.737732,318.915039 547.376099,316.092285 
z"/>
<path fill="#000000" opacity="1.000000" stroke="none" 
	d="
M714.417480,374.924927 
	C710.582825,373.219727 707.802979,370.931366 706.520996,367.234741 
	C705.839539,365.269928 704.449158,362.580841 707.134827,361.572601 
	C709.931458,360.522705 713.512024,359.703247 715.762573,362.941620 
	C719.748413,368.677185 723.691040,370.213440 730.283142,368.174927 
	C735.374451,366.600494 736.954407,363.752289 736.851257,356.292053 
	C736.839966,355.474976 736.744324,354.659088 736.645996,353.240814 
	C734.322021,354.267303 732.359985,355.325714 730.276917,356.022461 
	C717.923950,360.154358 702.494873,352.992371 704.164795,333.808014 
	C705.591064,317.423340 717.655640,310.559723 733.410583,316.487305 
	C734.898132,317.046936 735.858337,317.383026 737.300232,315.969971 
	C739.551208,313.764099 742.750671,314.364716 745.332886,315.178986 
	C748.228638,316.092072 747.169434,319.119049 747.186035,321.294189 
	C747.272156,332.604889 746.968994,343.923523 747.278809,355.226349 
	C747.738037,371.978607 738.000916,377.145966 723.025452,376.848236 
	C720.263550,376.793304 717.522339,375.701752 714.417480,374.924927 
M714.325500,337.187378 
	C714.757446,342.320587 716.454895,346.655762 721.849487,348.405731 
	C727.000549,350.076691 733.394287,348.064545 735.719055,344.184448 
	C737.430115,341.328613 737.296021,327.660370 735.452942,325.800293 
	C734.769592,325.110626 733.859680,324.605194 732.981873,324.154572 
	C723.142578,319.103760 714.570068,324.710205 714.325500,337.187378 
z"/>
<path fill="#000000" opacity="1.000000" stroke="none" 
	d="
M696.294678,334.099762 
	C696.514343,342.702057 695.690796,350.844269 697.074097,358.847748 
	C691.567505,361.408783 688.321106,360.820953 685.425293,356.716339 
	C679.680420,359.791840 673.765137,362.285431 666.945007,360.657227 
	C659.884033,358.971497 655.976746,355.152344 655.546814,349.236053 
	C655.053528,342.449799 658.259399,338.004608 665.230042,335.304291 
	C670.218079,333.372040 675.375000,333.869507 680.509460,333.653442 
	C682.631226,333.564178 685.672180,334.812225 686.403137,331.561920 
	C687.106567,328.434052 685.853210,325.632141 683.127258,323.760681 
	C679.112488,321.004364 671.432983,321.676208 668.542786,325.653809 
	C665.975342,329.187195 662.783997,328.290405 659.593018,328.190094 
	C657.276306,328.117249 656.929626,326.623810 657.662109,324.686890 
	C658.955139,321.267700 661.194641,318.647186 664.471985,317.049988 
	C671.523010,313.613586 678.831726,312.986115 686.263123,315.619873 
	C693.789917,318.287476 696.282593,322.895538 696.294678,334.099762 
M667.727356,343.248932 
	C665.174316,346.558350 665.000488,349.772919 668.768372,352.150513 
	C673.859741,355.363342 683.733826,352.062531 685.889954,346.498077 
	C686.718384,344.360199 687.494202,341.364410 683.959167,341.143158 
	C678.725952,340.815613 673.310547,339.999603 667.727356,343.248932 
z"/>
<path fill="#000000" opacity="1.000000" stroke="none" 
	d="
M793.614197,322.557007 
	C794.634277,324.497711 795.627014,326.071503 796.209412,327.784790 
	C799.832642,338.443604 797.938232,341.162994 787.020264,341.175568 
	C781.026733,341.182465 775.032837,341.228485 769.039734,341.182800 
	C765.387878,341.154938 764.736877,342.821320 766.001526,345.944000 
	C768.937012,353.192291 779.255005,355.461029 785.382507,350.158020 
	C786.371460,349.302185 787.317688,347.779785 788.353088,347.717285 
	C790.874390,347.565155 794.191589,346.518585 795.710144,349.063324 
	C797.063354,351.330933 794.729492,353.425842 793.085693,354.992371 
	C786.555420,361.216034 778.625244,362.102081 770.295410,360.184570 
	C762.469543,358.383118 757.633972,353.222137 755.539368,345.489685 
	C751.280029,329.765472 758.230896,316.821442 772.562256,314.424500 
	C780.831055,313.041534 788.037537,315.427460 793.614197,322.557007 
M767.779541,333.588959 
	C772.578125,333.593262 777.377258,333.646271 782.175049,333.588104 
	C786.888428,333.530975 788.080444,331.522919 785.809753,327.385742 
	C783.546509,323.261902 779.762878,322.047028 775.317200,322.213043 
	C770.901245,322.377960 767.745605,324.394775 766.090271,328.513031 
	C765.371155,330.302124 764.262207,332.318787 767.779541,333.588959 
z"/>
<path fill="#000000" opacity="1.000000" stroke="none" 
	d="
M568.420776,320.331238 
	C567.974792,316.091217 569.673706,314.565002 573.581543,314.783234 
	C577.733215,315.015076 581.918091,314.969574 586.072388,314.746826 
	C590.060486,314.532959 591.334167,316.308655 591.262634,320.094025 
	C591.098816,328.755310 591.434814,337.430939 591.093323,346.082031 
	C590.906067,350.825653 592.736938,352.433807 597.172791,351.953796 
	C598.488098,351.811462 599.835510,351.960663 601.168091,351.983185 
	C603.878174,352.028992 605.067505,353.459442 604.975098,356.112579 
	C604.887390,358.630402 603.928711,360.237183 601.114075,360.227478 
	C591.117371,360.193085 581.120605,360.195343 571.123840,360.182281 
	C568.580994,360.178955 567.678589,358.800262 567.624207,356.376312 
	C567.567017,353.826385 568.309692,352.407837 571.112122,351.969147 
	C574.238586,351.479767 578.563232,353.761230 580.246338,350.196594 
	C581.549866,347.435822 580.796204,343.673065 580.836670,340.354218 
	C580.889404,336.022980 580.713562,331.686951 580.844238,327.359283 
	C580.943054,324.085236 579.445496,323.098419 576.344421,322.914001 
	C573.644104,322.753418 570.163818,324.582123 568.420776,320.331238 
z"/>
<path fill="#000000" opacity="1.000000" stroke="none" 
	d="
M616.612183,353.889465 
	C616.622070,342.603699 616.682861,331.803070 616.619446,321.003143 
	C616.599487,317.610596 616.533691,314.834259 621.325806,314.727966 
	C625.916138,314.626129 626.611511,316.993286 626.441284,320.591553 
	C626.428162,320.869965 626.682556,321.161072 627.056702,321.981812 
	C629.633667,319.823975 631.773499,317.258942 634.800110,315.927002 
	C638.376587,314.353058 641.942627,313.557739 645.923157,314.347473 
	C649.129944,314.983734 650.376160,316.399689 650.251099,319.729553 
	C650.104553,323.633423 648.864075,324.999756 644.759521,324.148315 
	C634.708313,322.063171 627.453125,327.718842 626.867798,337.902283 
	C626.553650,343.368439 626.432434,348.853729 626.465393,354.328949 
	C626.486694,357.876282 626.178284,360.348053 621.512634,360.360962 
	C616.851135,360.373871 616.316711,357.941956 616.612183,353.889465 
z"/>
<path fill="#000000" opacity="1.000000" stroke="none" 
	d="
M580.150635,299.554993 
	C579.650940,293.442230 583.980774,294.338562 587.244263,294.211670 
	C591.200989,294.057831 591.020264,297.034027 590.978027,299.815033 
	C590.877808,306.418488 590.049255,307.170197 584.549194,307.100708 
	C578.944824,307.029846 580.688843,302.895111 580.150635,299.554993 
z"/>
<path fill="#000000" opacity="1.000000" stroke="none" 
	d="
M369.667816,269.467987 
	C381.969238,267.024231 393.883759,266.282623 405.648743,269.867676 
	C418.241455,273.704956 423.742737,283.759766 420.799011,296.738007 
	C418.010681,309.031311 410.638885,318.652710 402.802246,328.024109 
	C402.067322,328.902954 401.358185,329.803284 400.343323,331.056335 
	C404.808289,336.269104 409.307678,341.367249 413.076019,347.020752 
	C416.336243,351.911957 418.757507,357.111023 424.059174,360.811493 
	C429.771881,364.798859 428.255493,373.975128 422.054962,377.794067 
	C419.601715,379.304993 417.569214,381.086823 415.622284,383.161163 
	C409.080933,390.130768 400.283508,391.482788 391.428772,392.202637 
	C383.097595,392.879974 374.776184,392.160309 366.617065,390.297211 
	C363.463928,389.577209 361.878632,390.348022 360.653961,393.491119 
	C357.296417,402.108215 352.496368,409.868652 345.648499,416.236877 
	C335.230927,425.924835 322.919617,425.751312 312.752136,415.772522 
	C306.575378,409.710388 302.317627,402.390717 299.077881,394.479248 
	C297.698303,391.110168 295.998688,390.194427 292.240997,390.883209 
	C281.423279,392.866028 270.559235,393.761902 259.562805,391.356628 
	C241.913437,387.496185 234.540085,373.874298 241.490829,357.168823 
	C244.995865,348.744781 250.407547,341.535492 256.624512,335.005676 
	C259.357208,332.135468 259.124329,330.388641 256.648438,327.608429 
	C248.282089,318.213654 240.944748,308.154205 238.398041,295.427612 
	C236.400146,285.443573 239.292801,278.243652 247.695007,272.622986 
	C249.288879,271.556763 250.283035,270.325836 251.085098,268.550842 
	C254.497208,260.999756 263.253296,259.098053 269.242096,264.784485 
	C271.520294,266.947662 273.807434,267.511108 276.728027,267.842438 
	C282.002136,268.440643 287.254333,269.455017 292.422668,270.686066 
	C295.991455,271.536133 297.679352,270.742615 299.047729,267.095856 
	C302.505035,257.882111 306.599854,248.919617 314.065643,242.055786 
	C324.514160,232.449692 336.514893,232.924606 346.170227,243.434067 
	C351.761993,249.520432 355.585693,256.721375 358.726410,264.303467 
	C361.646851,271.353729 361.629181,271.361053 369.667816,269.467987 
M294.403778,333.406860 
	C294.697113,339.054993 295.091797,344.700500 295.237457,350.352448 
	C295.302124,352.861938 296.533447,354.324432 298.478210,355.547424 
	C307.645416,361.312195 316.981232,366.756927 326.842255,371.284058 
	C329.190857,372.362335 331.121033,372.296478 333.422028,371.187042 
	C342.433228,366.842255 351.005463,361.720612 359.661316,356.739990 
	C362.304260,355.219177 363.691223,353.259979 363.991638,350.039032 
	C365.186493,337.227814 364.959015,324.457611 363.746185,311.670013 
	C363.541901,309.516144 362.326752,308.435394 360.734802,307.434479 
	C351.711578,301.761078 342.467926,296.479553 333.011383,291.557129 
	C330.530975,290.265991 328.442566,290.326508 325.992065,291.653778 
	C316.767487,296.650177 307.659729,301.836578 298.800995,307.458923 
	C296.734161,308.770660 295.317657,310.290070 295.256683,313.021423 
	C295.111969,319.506866 294.704895,325.986450 294.403778,333.406860 
M384.841980,317.627808 
	C387.790680,320.064728 390.790741,322.443054 393.667694,324.961914 
	C395.238708,326.337402 396.504242,326.390808 397.907745,324.802704 
	C405.679474,316.008514 412.758636,306.776062 415.352631,294.998413 
	C417.594330,284.820465 413.233429,277.887451 403.084717,274.935425 
	C394.759430,272.513763 386.290100,272.799347 377.851074,273.885193 
	C373.028809,274.505707 367.991852,274.697968 363.481720,277.413300 
	C364.440460,281.159912 365.939697,284.506409 366.051544,287.898682 
	C366.492889,301.285278 372.181549,311.170563 384.841980,317.627808 
M293.265137,375.954346 
	C292.377380,371.053101 291.481506,366.153290 290.605682,361.249908 
	C290.220673,359.094574 289.747681,357.015900 287.846191,355.581635 
	C280.404266,349.968384 273.048035,344.248535 266.278809,337.818573 
	C264.848877,336.460327 263.467712,336.166779 261.993958,337.763702 
	C254.503860,345.879547 247.367294,354.223419 244.976379,365.454620 
	C243.235931,373.630219 245.790222,379.771423 253.336853,383.215881 
	C266.903107,389.407806 280.837006,387.177185 294.605469,384.692230 
	C295.287079,381.407990 293.843170,379.156311 293.265137,375.954346 
M294.970703,277.965240 
	C288.662811,273.998322 281.402039,274.316711 274.416107,273.499115 
	C272.445862,273.268524 272.362854,275.342194 271.825989,276.668274 
	C270.019470,281.130402 266.581421,283.564056 261.941040,284.004242 
	C256.973480,284.475494 253.567398,281.451874 250.702042,277.935669 
	C245.078033,280.976227 242.559982,286.440582 243.758957,292.659210 
	C246.183594,305.234985 253.527145,315.081329 261.478699,324.593536 
	C263.048645,326.471649 264.437958,326.647797 266.486206,324.964325 
	C273.429443,319.257721 280.511200,313.717743 287.607574,308.200897 
	C289.168976,306.987061 290.224792,305.511444 290.400757,303.662079 
	C291.206909,295.187866 293.604187,287.018585 294.970703,277.965240 
M365.144379,383.765167 
	C380.970306,387.430420 396.613312,389.254883 411.889008,379.755341 
	C410.797180,378.586365 410.387390,378.095825 409.925323,377.660736 
	C403.049316,371.186401 402.986908,365.692688 410.108856,359.268280 
	C412.277649,357.311920 411.412659,355.760345 410.411499,354.054749 
	C407.289093,348.735291 403.766754,343.709625 399.602448,339.118195 
	C397.265472,336.541534 395.380157,336.015167 392.621490,338.658722 
	C386.127808,344.881439 379.085602,350.465271 371.642761,355.530365 
	C370.358795,356.404144 369.541382,357.512299 369.251160,359.138763 
	C367.822723,367.144958 366.293701,375.133148 365.144379,383.765167 
M348.647827,256.843658 
	C346.460327,252.898605 343.942688,249.210602 340.647827,246.075928 
	C334.286499,240.023895 326.659882,239.099884 319.900482,244.539200 
	C310.885468,251.793640 306.724640,262.059631 303.304565,273.184479 
	C311.786285,275.825134 319.453796,278.974609 327.095306,282.194824 
	C328.101593,282.618896 329.513306,282.865845 330.470245,282.498779 
	C338.788391,279.307861 347.045593,275.957977 355.453766,272.602325 
	C353.710358,266.983734 351.487030,262.180359 348.647827,256.843658 
M336.188232,415.875793 
	C346.213074,410.636963 350.576019,400.995178 355.110138,391.498962 
	C356.342651,388.917603 354.764771,387.942078 352.597260,387.192932 
	C345.831909,384.854614 339.103149,382.410431 332.341736,380.060394 
	C331.434967,379.745239 330.290070,379.357971 329.478760,379.641998 
	C320.895660,382.646606 312.357880,385.780579 303.468597,389.001740 
	C306.880493,398.293365 311.230164,406.623840 318.449951,413.127808 
	C323.413452,417.599243 329.091248,419.204712 336.188232,415.875793 
M374.689606,346.079407 
	C380.692749,341.710052 386.384003,336.999451 391.893768,331.348450 
	C385.058228,324.956421 378.491638,319.530182 370.688538,314.584229 
	C370.688538,326.241394 370.688538,337.056915 370.688538,347.905243 
	C372.398651,348.055084 373.215302,347.156525 374.689606,346.079407 
M278.106262,322.634735 
	C274.816895,325.328369 271.205719,327.697418 268.713837,331.743805 
	C274.907410,337.568024 280.694519,343.599579 288.563873,348.090546 
	C288.563873,336.876465 288.563873,326.239502 288.563873,314.691223 
	C284.885345,317.477478 281.775055,319.833282 278.106262,322.634735 
M342.406128,283.900665 
	C340.658234,284.719177 338.554169,284.884949 337.047791,286.935638 
	C345.248322,291.560608 353.343903,296.126373 361.976288,300.994904 
	C361.851776,293.870697 359.909302,287.879608 358.437469,281.813599 
	C357.832245,279.319305 356.055817,278.846588 353.814117,279.660370 
	C350.233368,280.960297 346.661133,282.283752 342.406128,283.900665 
M298.853302,289.290619 
	C298.194122,293.159515 297.534912,297.028412 296.745972,301.658600 
	C305.567841,296.499878 313.635071,291.782440 322.449066,286.628357 
	C318.076416,284.833649 314.597168,283.311066 311.050018,281.967865 
	C301.194794,278.235962 301.183655,278.265411 298.853302,289.290619 
M308.312805,368.249725 
	C304.795166,366.265381 301.277527,364.281036 297.064331,361.904358 
	C297.789368,368.715149 299.010834,374.493439 300.665802,380.186584 
	C301.049896,381.508026 301.833527,382.879181 303.428650,382.472687 
	C309.698700,380.874847 315.968567,379.219788 322.338593,375.914062 
	C317.368103,373.191437 313.168121,370.890808 308.312805,368.249725 
M344.502655,372.093811 
	C342.439392,373.283051 339.947479,373.804199 337.991119,375.992096 
	C343.670105,378.565338 349.182800,380.230042 354.738129,381.796448 
	C357.093628,382.460602 358.398041,381.936523 359.104858,379.371246 
	C360.635803,373.815033 361.691345,368.202393 362.415680,361.931763 
	C356.331024,365.391907 350.740692,368.570984 344.502655,372.093811 
M420.404541,365.060944 
	C417.895325,362.722534 415.126495,362.138885 412.489441,364.579865 
	C410.279968,366.625061 410.048828,369.285767 411.939484,371.709961 
	C413.668152,373.926483 416.166534,374.439331 418.601349,373.138580 
	C421.671692,371.498352 422.615936,368.913361 420.404541,365.060944 
M266.090851,270.477753 
	C264.384277,267.684753 262.050323,266.447083 258.969025,268.090637 
	C256.220886,269.556488 255.463776,272.088135 256.489746,274.920837 
	C257.420959,277.491913 259.652283,278.388062 262.167877,277.795959 
	C265.572510,276.994568 267.261749,274.817352 266.090851,270.477753 
z"/>
<path fill="#000000" opacity="1.000000" stroke="none" 
	d="
M355.367432,329.928558 
	C356.094940,342.845551 349.384033,350.649475 339.822144,357.472137 
	C332.989807,362.347260 327.745209,362.773895 320.407715,358.109863 
	C309.270386,351.030518 302.827057,342.243500 303.657196,328.731689 
	C303.911713,324.589355 303.799072,320.415985 303.679535,316.261871 
	C303.589874,313.145874 304.775879,311.610321 308.022675,311.717896 
	C315.529602,311.966583 322.095551,309.463165 327.600281,304.423126 
	C329.595642,302.596252 330.929535,303.071991 332.652405,304.672302 
	C337.739929,309.398010 343.778259,311.890930 350.768097,311.701721 
	C354.197205,311.608887 355.535400,313.060486 355.397491,316.470886 
	C355.222900,320.787567 355.365753,325.117035 355.367432,329.928558 
M328.804718,327.507782 
	C328.804718,322.646576 328.804718,317.785370 328.804718,312.254761 
	C322.819611,315.120972 317.949554,317.222809 312.505737,317.380066 
	C310.178436,317.447296 309.408569,318.883148 309.373718,321.015594 
	C309.281342,326.668121 309.153442,332.322052 310.543854,337.865936 
	C312.483887,345.601166 320.861389,353.155060 328.804932,353.889313 
	C328.804932,345.398407 328.804932,336.951447 328.804718,327.507782 
z"/>
</svg>